<svg id="Layer_1" data-name="Layer 1" xmlns="http://www.w3.org/2000/svg" xmlns:xlink="http://www.w3.org/1999/xlink" viewBox="0 0 297.98 321.27"><defs><style>.cls-1{fill:none;}.cls-2{clip-path:url(#clip-path);}.cls-3{opacity:0.8;}.cls-4{clip-path:url(#clip-path-3);}.cls-5{fill:#eb8a5e;}</style><clipPath id="clip-path"><rect class="cls-1" y="-0.07" width="277.45" height="322.07"/></clipPath><clipPath id="clip-path-3"><rect class="cls-1" x="-9" y="-7.07" width="295.45" height="330.07"/></clipPath></defs><title>Artboard 1</title><g class="cls-2"><g class="cls-2"><g class="cls-3"><g class="cls-4"><path class="cls-5" d="M277.07,71.55c.92-2.09-.07-4.39-.69-6.43a24.36,24.36,0,0,0-3.83-8.07c-3.17-4.11-7.79-7.43-11.58-11-4.38-4.14-8.72-8.31-13.07-12.47-2-1.92-4.5-5.27-7-6.7-4.29-2.44-10.3-2.23-15.14-2.53h0l-16.31-.21-3.58-6.06a98.58,98.58,0,0,1-5.37-11.92c-.8-2.29-2.35-3.6-4.11-5L194.87-.07a51.34,51.34,0,0,0-7.08,6c-4.88,4.78-9.39,9.92-14,14.9L160.89,33.21a106.38,106.38,0,0,0-10.08,12c-4.85,6.37-5.75,14.54-7,22.21,0,.09-2.78,16.66-2.78,16.66-.2,1.09-.39,2.18-.59,3.28-2.21,12.46-6.12,24.93-7.73,37.44-.73,5.68-.53,11.49-2.06,17.05-1.47,5.33-4,10.36-5.94,15.54l-11.14,16.66-13.13,12.42L84.89,201,67.38,216.18l-18.7,15.75L34.75,245.26,23.61,257.78l-8.75,9.9-6.37,9.39-5.17,11L0,301.3l.53,14.85L2.23,322H227.39l0-.1V276.77l6-32.72,6.66-20.9,2.89-24.54,2-37-.79-41.2-.8-15.45c2.43-4.35,4.55-8.87,8-12.62,2.76-3,5.3-6.36,8.68-8.73a112.31,112.31,0,0,1,11.89-7.82c1.95-1,4.37-2.23,5.26-4.28"/></g></g></g></g></svg>