<?xml version="1.0" encoding="utf-8"?>
<!-- Generator: Adobe Illustrator 16.0.0, SVG Export Plug-In . SVG Version: 6.00 Build 0)  -->
<!DOCTYPE svg PUBLIC "-//W3C//DTD SVG 1.1//EN" "http://www.w3.org/Graphics/SVG/1.1/DTD/svg11.dtd">
<svg version="1.1" id="Layer_1" xmlns="http://www.w3.org/2000/svg" xmlns:xlink="http://www.w3.org/1999/xlink" x="0px" y="0px"
	 width="1777.025px" height="1590.426px" viewBox="0 0 1777.025 1590.426" enable-background="new 0 0 1777.025 1590.426"
	 xml:space="preserve">
<g opacity="0.7">
	<g>
		<title>Artboard 1</title>
		<g>
			<g>
				<g>
					<g>
						<path fill="#505744" d="M914.547,377.002c-11.514-4.066-23.021-8.129-34.533-12.199
							c-67.387,108.039-126.951,220.623-193.73,329.025c-38.355,62.258-77.115,125.664-111.621,190.111
							c-32.5,60.693-66.271,121.193-117.641,168.342c-56.563,51.924-123.936,61.316-190.898,92.184
							C97.963,1221.965,39.973,1422.012,0,1585.836c83.1,9.691,172.758,1.023,256.697,1.023c85.814-0.004,171.629,0.004,257.445,0
							c168.924-0.004,337.848,0,506.77,0c93.604,0,187.441,1.938,281.01-0.18c5.883-30.426-14.443-64.385-21.434-93.504
							c-6.316-26.322-8.848-54.867-9.949-82.039c-2.074-51.117,2.268-105.486,7.969-156.207
							c12.404-110.469,39.17-218.787,50.848-329.336c7.781-73.656,31.652-140.82-4.939-210.309
							c-10.764-20.543-24.82-38.543-38.754-56.912c-3.352-4.406-6.486-8.969-9.838-13.406
							c-8.238-10.135-17.186-19.668-26.783-28.523l-25.506-27.088l-56.572-46.551l-17.537-15.67l-22.717-18.344
							c-4.014-2.432-7.834-5.158-11.443-8.158c-1.459-1.025-14.496-8.506-14.496-10.242c-12.574-8.67-25.195-17.232-37.857-25.691
							c-10.582-7.016-21.721-13.037-32.086-20.299c-10.365-7.26-20.918-16.445-31.869-23.617
							c-10.957-7.166-24.053-13.467-36.029-19.889c-8.566-4.594-17.256-8.936-25.975-13.158c-7.277-3.939-14.76-7.488-22.406-10.646
							 M1775.061,151.404c4.195-20.809,3.469-41.936-20.496-46.467c-23.59-4.457-52.143,0.787-76.189,1.289l-88.787,1.578
							l-93.563-9.307c0,0-69.135-50.43-90.645-60.361c-50.736-26.625-184.799-49.648-235.846-31.869
							c-25.014,8.846-66.469,31.869-66.469,31.869l-46.178,40.346l-48.627,62.807l-43.916,66.539l-39.469,72.148
							c-2.971,6.127-11.338,16.682-8.303,22.746c3.662,7.324,34.4,14.695,42.375,18.404c29.672,13.793,58.131,30.064,86.01,47.154
							c39.129,23.988,79.301,46.537,117.51,72.102c40.447,27.068,80.467,56.236,113.174,92.57
							c15.475,17.197,29.314,35.826,43.043,54.447c5.684,7.715,46.734,51.666,45.064,58.48c8.9-36.262,13.846-73.662,23.666-109.676
							c11.977-43.943,10.283-100.006,55.295-125.467c55.283-31.264,127.125-15.086,186.668-30.168
							c26.953-6.828,49.441-23.203,68.719-43.168c27.252-28.207,38.9-59.936,52.119-95.631c0,0,17.057-61.154,17.162-61.535
							C1769.641,172.111,1772.963,161.797,1775.061,151.404z"/>
					</g>
				</g>
			</g>
		</g>
	</g>
</g>
</svg>
