<svg id="Layer_1" data-name="Layer 1" xmlns="http://www.w3.org/2000/svg" xmlns:xlink="http://www.w3.org/1999/xlink" viewBox="0 0 591.64 520.88"><defs><style>.cls-1{fill:none;}.cls-2{clip-path:url(#clip-path);}.cls-3{clip-path:url(#clip-path-2);}.cls-4{opacity:0.5;}.cls-5{fill:#06211c;}</style><clipPath id="clip-path"><rect class="cls-1" y="-0.28" width="591.65" height="521.28"/></clipPath><clipPath id="clip-path-2"><rect class="cls-1" y="-0.28" width="591.65" height="521.28"/></clipPath></defs><title>Artboard 1</title><g class="cls-2"><g class="cls-3"><g class="cls-4"><g class="cls-2"><path class="cls-5" d="M304.13,130.13,293,126.2l-11.59,18.45-38.15,67-13.84,22.65-34.15,57.88-18.15,32.71-8.61,11.78-16,17.52-22.15,9.36c-1.4.59-2.8,1.23-4.19,1.84-11.61,5.09-23.24,9.46-35,14.15-4.41,1.77-8.17,5.24-12,8-10.94,7.91-19.82,18.8-29.11,28.52L34.7,443.61,22.09,471.7,12.56,501,9,520H452.1l-.88-.28-21.53-11.48-5.54-10.57-3.07-10.87L418.72,462l.51-17.52,2.15-31.1,4.31-28.09,4.61-27.18,5.54-31.71,3.69-35.63L442.11,267l.41-16.78a43.68,43.68,0,0,1-3.56-5.32c-.84-1.95-1.76-3.88-2.75-5.76-3.47-6.62-8-12.42-12.49-18.34-1.08-1.42-2.09-2.89-3.17-4.32a88.14,88.14,0,0,0-8.63-9.19l-8.22-8.73-18.23-15-5.65-5.05-7.32-5.91a30.55,30.55,0,0,1-3.69-2.63c-.47-.33-4.67-2.74-4.67-3.3q-6.08-4.19-12.2-8.28c-3.41-2.26-7-4.2-10.34-6.54s-6.74-5.3-10.27-7.61-7.75-4.34-11.61-6.41c-2.76-1.48-5.56-2.88-8.37-4.24a76.73,76.73,0,0,0-7.22-3.43M580.22,55.26l2.43-6-.38-6-2.15-2.32-5.85-.5-24,.5-28.61.51-30.15-3S469.23,22.2,462.3,19c-16.35-8.58-59.55-16-76-10.27C378.24,11.58,364.88,19,364.88,19L350,32,334.33,52.24,320.18,73.68,307.46,96.93l-3.55,7.32c6.38,2.21,8.11,3.35,8.11,3.35l10,4.62,11,5.65,13.74,7.88,7.49,5,12.15,6.68,8,5.13L385,149.29l1.88,1.38c2.37,1.75,4.75,3.49,7.11,5.24l5.84,4.36c1.82,1.36,3.67,2.68,5.46,4.08s3.36,2.77,5,4.15c4.07,3.36,8.08,6.75,11.81,10.48,2.74,2.74,5.3,5.8,8,8.69,2.84,3.07,11.36,14.7,12.58,17.48.69,1.57,3.88,6.38,6.2,10l.86-4.35,6.77-31.3a227.25,227.25,0,0,0,5.26-24.58c.37-2.21,1.06-7.85,3.05-9.35l8.82-6.64,9.33-3.63,16-2.52,19.69-.5,18.56-3.32,13.13-7.25,8.92-9,8-11.48,6.15-16.61,5.53-19.83Z"/></g></g></g></g></svg>