<?xml version="1.0" encoding="utf-8"?>
<!-- Generator: Adobe Illustrator 16.0.0, SVG Export Plug-In . SVG Version: 6.00 Build 0)  -->
<!DOCTYPE svg PUBLIC "-//W3C//DTD SVG 1.1//EN" "http://www.w3.org/Graphics/SVG/1.1/DTD/svg11.dtd">
<svg version="1.1" id="Layer_1" xmlns="http://www.w3.org/2000/svg" xmlns:xlink="http://www.w3.org/1999/xlink" x="0px" y="0px"
	 width="612px" height="792px" viewBox="0 0 612 792" enable-background="new 0 0 612 792" xml:space="preserve">
<g>
	<g>
		<title>Artboard 1</title>
		<g>
			<g>
				<g>
					<g>
						<path fill="#939598" d="M-339.15,144.667c-3.838-1.355-7.675-2.71-11.512-4.066c-22.462,36.013-42.317,73.541-64.577,109.675
							c-12.785,20.753-25.705,41.888-37.207,63.371c-10.833,20.231-22.09,40.397-39.213,56.114
							c-18.854,17.308-41.312,20.438-63.633,30.728c-56.053,25.833-75.384,92.516-88.708,147.124
							c27.7,3.23,57.586,0.341,85.566,0.341c28.605-0.001,57.21,0.001,85.815,0c56.308-0.001,112.616,0,168.924,0
							c31.201,0,62.48,0.646,93.67-0.06c1.961-10.143-4.814-21.462-7.145-31.168c-2.105-8.774-2.949-18.289-3.316-27.347
							c-0.691-17.039,0.756-35.162,2.656-52.069c4.135-36.822,13.057-72.929,16.949-109.778c2.594-24.552,10.551-46.94-1.646-70.103
							c-3.588-6.848-8.273-12.848-12.918-18.971c-1.117-1.469-2.162-2.989-3.279-4.469c-2.746-3.378-5.729-6.556-8.928-9.508
							l-8.502-9.029l-18.857-15.517l-5.846-5.224l-7.572-6.114c-1.338-0.811-2.611-1.72-3.814-2.72
							c-0.486-0.342-4.832-2.835-4.832-3.414c-4.191-2.89-8.398-5.744-12.619-8.563c-3.527-2.339-7.24-4.346-10.695-6.767
							c-3.455-2.42-6.973-5.481-10.623-7.872c-3.652-2.389-8.018-4.489-12.01-6.63c-2.855-1.531-5.752-2.979-8.658-4.386
							c-2.426-1.313-4.92-2.496-7.469-3.549 M-52.313,69.468c1.398-6.937,1.156-13.979-6.832-15.489
							c-7.863-1.485-17.381,0.263-25.396,0.43l-29.596,0.526l-31.188-3.103c0,0-23.045-16.81-30.215-20.12
							c-16.912-8.875-61.6-16.55-78.615-10.623c-8.338,2.948-22.156,10.623-22.156,10.623l-15.393,13.448l-16.209,20.936
							l-14.639,22.18l-13.156,24.05c-0.99,2.042-3.779,5.561-2.768,7.582c1.221,2.441,11.467,4.898,14.125,6.135
							c9.891,4.598,19.377,10.021,28.67,15.718c13.043,7.996,26.434,15.513,39.17,24.034c13.482,9.022,26.822,18.745,37.725,30.856
							c5.158,5.732,9.771,11.942,14.348,18.149c1.895,2.571,15.578,17.222,15.021,19.493c2.967-12.087,4.615-24.554,7.889-36.559
							c3.992-14.647,3.428-33.335,18.432-41.822c18.428-10.421,42.375-5.028,62.223-10.056c8.984-2.276,16.48-7.734,22.906-14.39
							c9.084-9.402,12.967-19.979,17.373-31.877c0,0,5.686-20.385,5.721-20.512C-54.119,76.371-53.012,72.932-52.313,69.468z"/>
					</g>
				</g>
			</g>
		</g>
	</g>
</g>
<g>
	<g>
		<title>Artboard 1</title>
		<g>
			<path fill="#DF1F26" d="M297.612,264.849c-4.863-3.6-8.344-10.546-11.028-15.057c-8.495-14.277-15.051-24.319-27.736-35.462
				c-11.959-10.504-25.45-19.546-41.424-22.251c-48.635-8.236-107.219-2.224-132.482,46.269
				c-25.176,48.322-9.105,112.316,19.957,154.82c14.066,20.571,32.234,37.373,48.939,55.698
				c23.326,25.589,46.475,51.486,68.638,78.095c18.686,22.435,35.638,47.256,55.271,68.785c8.806,9.656,22.254,11.609,33.721,4.314
				c12.17-7.744,21.324-20.006,30.896-30.568c20.839-23,42.979-44.766,64.955-66.667c20.897-20.827,40.529-43.165,62.32-63.046
				c11.863-10.822,24.169-21.29,34.318-33.809c12.161-15,22.164-31.825,29.111-49.857c6.638-17.228,6.371-33.784,6.476-51.995
				c0.213-37.053-16.069-66.031-43.969-89.586c-13.283-11.215-29.195-18.416-46.29-21.442c-34.236-6.064-71.59,2.473-98.92,24.147
				c-10.146,8.046-17.959,18.355-25.956,28.424C319.759,251.521,307.09,271.861,297.612,264.849z"/>
		</g>
	</g>
</g>
</svg>
