<svg id="Layer_1" data-name="Layer 1" xmlns="http://www.w3.org/2000/svg" xmlns:xlink="http://www.w3.org/1999/xlink" viewBox="0 0 90.98 70.93"><defs><style>.cls-1{fill:none;}.cls-2{clip-path:url(#clip-path);}.cls-3{fill:#e0101a;}</style><clipPath id="clip-path"><rect class="cls-1" x="1" y="0.16" width="87.75" height="69.84"/></clipPath></defs><title>Artboard 1</title><g class="cls-2"><path class="cls-3" d="M43.29,18.42l-3-5.06-4-3.69L31.82,7.56l-7.92-.4L17.83,8.35c-.15,0-.35.23-.48.31l-1.07.72a25.19,25.19,0,0,0-2.71,2.09l-1.89,3A22.79,22.79,0,0,0,10.07,19c-.05,1,0,2-.07,2.95a77.27,77.27,0,0,0,1.11,8.74c.23.68.58,1.32.88,2,.44.92.81,1.92,1.33,2.81h0a12,12,0,0,0,1.15,1.43l1,1.27.21.25,2.37,3.17L21.53,45,41.59,68.72l3.17.28L69.05,44.08l6.07-6,2.11-4.4,2.11-5L79.75,21l-.94-3.7-2.37-4-4-2.9L67,8.08H59.28l-4.49.27-3.73,2.16L48.3,12.88l-2.84,5.28-.94.79Z"/></g></svg>