<?xml version="1.0" encoding="utf-8"?>
<!-- Generator: Adobe Illustrator 16.0.0, SVG Export Plug-In . SVG Version: 6.00 Build 0)  -->
<!DOCTYPE svg PUBLIC "-//W3C//DTD SVG 1.1//EN" "http://www.w3.org/Graphics/SVG/1.1/DTD/svg11.dtd">
<svg version="1.1" id="Layer_1" xmlns="http://www.w3.org/2000/svg" xmlns:xlink="http://www.w3.org/1999/xlink" x="0px" y="0px"
	 width="612px" height="792px" viewBox="0 0 612 792" enable-background="new 0 0 612 792" xml:space="preserve">
<g>
	<title>Artboard 1</title>
	<polygon fill="#FFFFFF" points="294.669,418.893 317.572,402.256 351.17,394.693 375.909,391.669 418.258,399.447 456.285,412.843 
		497.121,435.422 551.137,473.232 587.651,514.501 594.998,529.085 592.837,564.844 578.901,586.45 556.971,600.063 
		535.148,606.112 467.952,609.137 438.784,616.591 415.341,628.69 390.493,646.84 371.588,668.014 351.17,687.567 331.184,705.717 
		308.713,715.764 272.307,718.681 259.127,711.767 241.626,696.643 231.363,668.014 225.529,637.766 227.042,545.722 
		237.196,497.324 256.21,462.646 	"/>
	<polygon fill="#FFFFFF" points="132.729,175.173 93.622,175.173 74.825,187.165 63.265,205.098 54.623,230.594 58.944,262.139 
		73.853,303.839 103.993,340.138 141.372,364.121 191.931,372.547 219.263,353.642 232.443,325.121 230.499,273.914 
		203.491,226.164 182.316,200.669 157.253,184.14 	"/>
	<polygon fill="#FFFFFF" points="56.783,399.555 40.903,408.306 29.343,418.785 20.593,435.205 18,477.122 30.964,504.021 
		55.379,536.972 88.545,560.955 127.544,569.921 163.519,568.409 185.449,548.963 193.552,522.063 189.771,480.146 168.056,445.685 
		142.777,423.214 118.902,408.306 84.224,399.555 	"/>
	<polygon fill="#FFFFFF" points="496.364,178.198 473.57,185.22 456.393,200.776 443.429,214.28 436.191,232.322 433.49,250.255 
		434.786,316.587 442.024,346.403 470.761,376.221 487.938,385.187 520.348,385.187 545.52,367.361 565.613,335.384 
		568.098,304.379 567.018,251.768 554.054,221.734 539.686,199.265 522.509,184.248 	"/>
	<polygon fill="#FFFFFF" points="289.268,76 280.625,82.05 261.936,98.578 250.376,121.049 241.734,139.847 239.033,199.265 
		251.781,230.81 273.387,263.867 303.744,290.119 328.159,292.496 358.517,289.362 375.801,272.618 387.36,242.801 393.086,209.743 
		391.682,173.444 377.206,130.124 361.325,106.033 333.993,85.074 316.06,76 	"/>
</g>
</svg>
