<svg id="Layer_1" data-name="Layer 1" xmlns="http://www.w3.org/2000/svg" viewBox="0 0 56.65 61.85"><defs><style>.cls-1{fill:#b98f00;}</style></defs><title>Artboard 1</title><polygon class="cls-1" points="25.61 33.25 27.73 31.71 30.84 31.01 33.13 30.73 37.05 31.45 40.57 32.69 44.35 34.78 49.35 38.28 52.73 42.1 53.41 43.45 53.21 46.76 51.92 48.76 49.89 50.02 47.87 50.58 41.65 50.86 38.95 51.55 36.78 52.67 34.48 54.35 32.73 56.31 30.84 58.12 28.99 59.8 26.91 60.73 23.54 61 22.32 60.36 20.7 58.96 19.75 56.31 19.21 53.51 19.35 44.99 20.29 40.51 22.05 37.3 25.61 33.25"/><polygon class="cls-1" points="10.62 10.69 7 10.69 5.26 11.8 4.19 13.46 3.39 15.82 3.79 18.74 5.17 22.6 7.96 25.96 11.42 28.18 16.1 28.96 18.63 27.21 19.85 24.57 19.67 19.83 17.17 15.41 15.21 13.05 12.89 11.52 10.62 10.69"/><polygon class="cls-1" points="3.59 31.46 2.12 32.27 1.05 33.24 0.24 34.76 0 38.64 1.2 41.13 3.46 44.18 6.53 46.4 10.14 47.23 13.47 47.09 15.5 45.29 16.25 42.8 15.9 38.92 13.89 35.73 11.55 33.65 9.34 32.27 6.13 31.46 3.59 31.46"/><polygon class="cls-1" points="44.28 10.97 42.17 11.62 40.58 13.06 39.38 14.31 38.71 15.98 38.46 17.64 38.58 23.78 39.25 26.54 41.91 29.3 43.5 30.13 46.5 30.13 48.83 28.48 50.69 25.52 50.92 22.65 50.82 17.78 49.62 15 48.29 12.92 46.7 11.53 44.28 10.97"/><polygon class="cls-1" points="25.11 1.51 24.31 2.07 22.58 3.6 21.51 5.68 20.71 7.42 20.46 12.92 21.64 15.84 23.64 18.9 26.45 21.33 28.71 21.55 31.52 21.26 33.12 19.71 34.19 16.95 34.72 13.89 34.59 10.53 33.25 6.52 31.78 4.29 29.25 2.35 27.59 1.51 25.11 1.51"/></svg>