<svg id="Layer_1" data-name="Layer 1" xmlns="http://www.w3.org/2000/svg" xmlns:xlink="http://www.w3.org/1999/xlink" viewBox="0 0 152.48 152.27"><defs><style>.cls-1{fill:none;}.cls-2{clip-path:url(#clip-path);}.cls-3{fill:#383638;}</style><clipPath id="clip-path"><rect class="cls-1" y="0.23" width="152.8" height="152.77"/></clipPath></defs><title>Artboard 1</title><g class="cls-2"><path class="cls-3" d="M138.21,121.08a1.77,1.77,0,0,0,1.17-.81,3.79,3.79,0,0,0,.54-1.8,5.92,5.92,0,0,0-.35-2.36l0,0,1.49,1,.25,0,2.09-3.69-.71-.47a4.36,4.36,0,0,1-.47.55,2,2,0,0,1-.51.36,1.68,1.68,0,0,1-.81.1,1.75,1.75,0,0,1-.75-.28l-6.55-4.32a1.33,1.33,0,0,1-.53-.56.88.88,0,0,1-.05-.66,2.44,2.44,0,0,1,.22-.52c.1-.18.2-.36.29-.54l-.71-.47-3.69,5.6.71.47c.15-.2.34-.43.56-.69a3.64,3.64,0,0,1,.62-.59,1.09,1.09,0,0,1,.66-.22,1.38,1.38,0,0,1,.71.26l6.18,4.07a4.33,4.33,0,0,1,.4,1.92,2.93,2.93,0,0,1-.37,1.45c-.12-.1-.23-.21-.34-.32a2.78,2.78,0,0,0-.41-.32,1.1,1.1,0,0,0-.9-.14,1.53,1.53,0,0,0-.92.71,1.12,1.12,0,0,0-.12,1.11,2.12,2.12,0,0,0,.8.91,1.93,1.93,0,0,0,1.46.36m-2.49-17.47A5.76,5.76,0,0,1,136,103a1.41,1.41,0,0,1,.35-.47,1.54,1.54,0,0,1,.66-.31,1.36,1.36,0,0,1,.76.07l9.57,3.18.23-.13,1.17-4.48-.81-.27c-.13.35-.26.67-.38,1a1.42,1.42,0,0,1-.39.6,1.91,1.91,0,0,1-.69.3,1.58,1.58,0,0,1-.77-.07l-6.83-2.27a3.39,3.39,0,0,1-.4-.56,3.85,3.85,0,0,1-.35-.77,3.49,3.49,0,0,1-.2-1,3.44,3.44,0,0,1,.19-1.27,1.91,1.91,0,0,1,1.13-1.18,3,3,0,0,1,2.16.06l8.38,2.79L150,98l1.05-4.12-.81-.27a4.6,4.6,0,0,1-.32.67,1.62,1.62,0,0,1-.4.48,1.61,1.61,0,0,1-.68.31,1.52,1.52,0,0,1-.8-.08L142.29,93a5,5,0,0,0-3.32-.17A3.09,3.09,0,0,0,137.12,95a5,5,0,0,0-.31,1.51A5.53,5.53,0,0,0,137,97.7a4.8,4.8,0,0,0,.35,1c.15.32.3.61.44.88l0,.07-1.53-.51-.23.13-1,4Zm6.1-21.07A2.86,2.86,0,0,1,140.33,80a2.78,2.78,0,0,1,.51-1.64,3.73,3.73,0,0,1,1.32-1.07,6.44,6.44,0,0,1,1.89-.59,12,12,0,0,1,2.3-.14,11.16,11.16,0,0,1,1.94.21,5.79,5.79,0,0,1,1.77.63,3.77,3.77,0,0,1,1.32,1.17,2.92,2.92,0,0,1,.44,1.71,2.71,2.71,0,0,1-.52,1.63,3.51,3.51,0,0,1-1.31,1,6.35,6.35,0,0,1-1.84.54,11.28,11.28,0,0,1-2.05.14,8.22,8.22,0,0,1-4.28-1m9.07,2.1a6.35,6.35,0,0,0,.13-9,6.92,6.92,0,0,0-4.83-1.86,7.59,7.59,0,0,0-2.8.43,6.42,6.42,0,0,0-2.14,1.28,5.77,5.77,0,0,0-1.38,1.92,6,6,0,0,0-.52,2.29,6.62,6.62,0,0,0,.44,2.65,5.72,5.72,0,0,0,1.48,2.1,6.35,6.35,0,0,0,2.17,1.27,8.49,8.49,0,0,0,2.62.49,6.57,6.57,0,0,0,4.83-1.62m-19.22-24.9a2.36,2.36,0,0,0-.09,1.64,2.78,2.78,0,0,0,.41.93,3.64,3.64,0,0,0,1,.88,8.65,8.65,0,0,0,1.84.84,22.24,22.24,0,0,0,3.07.75c1,.19,2.53.45,4.61.76s4.4.71,6.94,1.15a2.33,2.33,0,0,1,1.27.66,3.24,3.24,0,0,1,.67.89l.78-.19L151,63.46l-.8.2a3.38,3.38,0,0,1-.09,1.16c-.1.43-.25.67-.47.72a2.1,2.1,0,0,1-.76,0l-.72-.1c-1.42-.19-2.66-.37-3.71-.55l-3.06-.51c.85-.58,2-1.38,3.38-2.41s2.48-1.79,3.23-2.3l.33-.22a1.28,1.28,0,0,1,.24-.12c.12,0,.28.12.46.45a4.24,4.24,0,0,1,.37.87l.88-.21L149,54.8l-.83.2a3.56,3.56,0,0,1-.14,1.23,1.86,1.86,0,0,1-.7,1l-4.37,3.18q-2.11,1.53-4.8,3.43a15.06,15.06,0,0,1-2.8-.66,5.22,5.22,0,0,1-2.12-1.08c.12-.12.27-.27.45-.47a2.79,2.79,0,0,0,.41-.52,2.23,2.23,0,0,0,.27-.61,1.61,1.61,0,0,0,0-.72,1.14,1.14,0,0,0-.6-.77,1.57,1.57,0,0,0-1.1-.1,1.4,1.4,0,0,0-.94.82m2.61-10.93a3.51,3.51,0,0,1-.58-.68q-.37-.51-.54-.78a2.62,2.62,0,0,1-.4-1.05,1.37,1.37,0,0,1,.17-.83,2.31,2.31,0,0,1,.66-.71c.29-.22.66-.46,1.12-.74l6.09-3.64,1.86,3.11,1.06-.63-1.87-3.13,3.4-2-1.2-2-3.4,2-1.2-2-1.06.63,1.17,2-7.39,4.41a3.58,3.58,0,0,0-1.62,1.73,2.71,2.71,0,0,0,.46,2.34,6,6,0,0,0,1.14,1.45c.39.35.83.7,1.32,1.06Zm2.62-16.5a1.77,1.77,0,0,0-.45-1.35,3.71,3.71,0,0,0-1.57-1,5.78,5.78,0,0,0-2.36-.34l0-.05,1.36-1.15,0-.26-3-3-.65.55a6.17,6.17,0,0,1,.39.61,1.59,1.59,0,0,1,.2.59,1.49,1.49,0,0,1-.13.8,1.87,1.87,0,0,1-.48.65l-6,5.07a1.51,1.51,0,0,1-.69.35.87.87,0,0,1-.65-.15,2.17,2.17,0,0,1-.44-.35l-.43-.43-.65.55,4.33,5.11.65-.55c-.15-.2-.32-.44-.5-.73a3.23,3.23,0,0,1-.39-.76,1,1,0,0,1,0-.69,1.44,1.44,0,0,1,.45-.61l5.64-4.78a4.24,4.24,0,0,1,2,.15,2.81,2.81,0,0,1,1.29.77l-.41.23a2.73,2.73,0,0,0-.42.3,1.17,1.17,0,0,0-.39.83A1.55,1.55,0,0,0,134,33.7a1.11,1.11,0,0,0,1,.43,2.22,2.22,0,0,0,1.1-.51,2,2,0,0,0,.75-1.31m-19.48-5.48a2.86,2.86,0,0,1-3-.33,2.72,2.72,0,0,1-1-1.37,3.7,3.7,0,0,1-.09-1.7,6.86,6.86,0,0,1,.64-1.88,11.78,11.78,0,0,1,1.24-1.93,11,11,0,0,1,1.32-1.44,5.68,5.68,0,0,1,1.55-1.07,3.72,3.72,0,0,1,1.72-.37,3,3,0,0,1,1.65.65,2.71,2.71,0,0,1,1,1.38,3.51,3.51,0,0,1,.08,1.68,6.7,6.7,0,0,1-.65,1.8A12.05,12.05,0,0,1,120.8,24a8.32,8.32,0,0,1-3.38,2.84m7-6.09a5.87,5.87,0,0,0-2.4-4.11,5.86,5.86,0,0,0-4.76-1.27,6.92,6.92,0,0,0-4.34,2.8,7.43,7.43,0,0,0-1.31,2.52,6.47,6.47,0,0,0-.23,2.48,5.82,5.82,0,0,0,2.29,4,6.76,6.76,0,0,0,2.39,1.21,5.7,5.7,0,0,0,2.57,0,6.35,6.35,0,0,0,2.3-1,8.94,8.94,0,0,0,2-1.83,6.62,6.62,0,0,0,1.54-4.86M101.7,18.27a2.76,2.76,0,0,1-1.43-.19,3,3,0,0,1-1-.62,4,4,0,0,1-.59-.82,3.06,3.06,0,0,1-.29-.82,2.61,2.61,0,0,1-.07-.81l2.91-6.93a4.81,4.81,0,0,1,1.46-.47,2.93,2.93,0,0,1,1.66.24,3,3,0,0,1,1.38,1.09,3.49,3.49,0,0,1,.59,1.56,5.51,5.51,0,0,1-.07,1.84,9.54,9.54,0,0,1-.57,1.88,9.63,9.63,0,0,1-1.14,2.07,5.63,5.63,0,0,1-1.42,1.42,3.21,3.21,0,0,1-1.45.56M107.59,8.2a4.69,4.69,0,0,0-1.8-1.31,4.32,4.32,0,0,0-2-.29,5.35,5.35,0,0,0-2,.55l-.09-.07.55-1.32-.1-.21L98,4.13l-.33.79a5,5,0,0,1,.69.41,1.76,1.76,0,0,1,.5.47,1.51,1.51,0,0,1,.24.73,1.5,1.5,0,0,1-.11.76L93.75,19.76a1.69,1.69,0,0,1-.44.64.82.82,0,0,1-.67.2,3,3,0,0,1-.67-.14l-.74-.24L90.9,21l6.55,2.75.33-.78A8.31,8.31,0,0,1,97,22.5a5.36,5.36,0,0,1-.72-.56,1,1,0,0,1-.34-.63,1.53,1.53,0,0,1,.14-.78L97.51,17l.09,0a4.63,4.63,0,0,0,.87,1,5.86,5.86,0,0,0,1.64,1,5.34,5.34,0,0,0,2.25.43,6.32,6.32,0,0,0,2.3-.51,7,7,0,0,0,2-1.44,7.35,7.35,0,0,0,1.53-2.35,8.31,8.31,0,0,0,.67-2.67,6.52,6.52,0,0,0-.28-2.39,5.12,5.12,0,0,0-1-1.9m-22.47,5A3,3,0,0,1,82.59,13a3.42,3.42,0,0,1-.78-.64,3.38,3.38,0,0,1-.49-.72,2.89,2.89,0,0,1-.28-.77L82.1,3.44a5.06,5.06,0,0,1,1.29-.82,3,3,0,0,1,1.67-.19,3.08,3.08,0,0,1,1.62.7,3.66,3.66,0,0,1,1,1.36,5.8,5.8,0,0,1,.4,1.8,9.76,9.76,0,0,1-.07,2,11,11,0,0,1-.58,2.3,6,6,0,0,1-1,1.73,3.18,3.18,0,0,1-1.26.91M88.26,2a4.67,4.67,0,0,0-2.08-.8,4.13,4.13,0,0,0-2,.23,5.67,5.67,0,0,0-1.83,1l-.1,0L82.43,1,82.27.79,77.94.46l-.12.84a6.62,6.62,0,0,1,.78.22,1.69,1.69,0,0,1,.6.33,1.66,1.66,0,0,1,.42.64,1.57,1.57,0,0,1,.08.77L77.8,16.65a1.63,1.63,0,0,1-.26.73.86.86,0,0,1-.6.37,3.66,3.66,0,0,1-.68,0l-.77,0-.12.84,7,1,.12-.84a6.8,6.8,0,0,1-.92-.26,4.52,4.52,0,0,1-.84-.35,1,1,0,0,1-.49-.52,1.55,1.55,0,0,1-.07-.79L80.74,13h.1a4.24,4.24,0,0,0,1.1.77,5.81,5.81,0,0,0,1.83.52,5.35,5.35,0,0,0,2.29-.16,6,6,0,0,0,2.09-1.08,6.57,6.57,0,0,0,1.61-1.91,7.27,7.27,0,0,0,.89-2.66,8.38,8.38,0,0,0,0-2.75,6.6,6.6,0,0,0-.88-2.24A5.19,5.19,0,0,0,88.26,2m-15.69,10a6.07,6.07,0,0,1-.71.05,1.41,1.41,0,0,1-.57-.11,1.54,1.54,0,0,1-.58-.45,1.48,1.48,0,0,1-.29-.71L69,.72,68.74.57l-4.54,1,.13.84,1-.09a1.38,1.38,0,0,1,.71.08,1.7,1.7,0,0,1,.58.48,1.55,1.55,0,0,1,.29.72l1,7.12a3.63,3.63,0,0,1-.32.61,4,4,0,0,1-.53.66,3.65,3.65,0,0,1-.84.65,3.58,3.58,0,0,1-1.22.4,1.94,1.94,0,0,1-1.57-.48,3,3,0,0,1-.91-2L61.3,1.84l-.22-.15-4.15.93.13.84a6.17,6.17,0,0,1,.74,0,1.52,1.52,0,0,1,.61.14,1.62,1.62,0,0,1,.59.46,1.6,1.6,0,0,1,.29.75l.88,6a5,5,0,0,0,1.34,3,3.08,3.08,0,0,0,2.7.71,4.89,4.89,0,0,0,1.49-.4,5.89,5.89,0,0,0,1-.68,4.47,4.47,0,0,0,.78-.79c.22-.28.42-.54.59-.78l.08,0,.23,1.6.22.15,4.07-.89Zm-23.82-3a13.26,13.26,0,0,0-1.67,0c-.62,0-1.25.07-1.89.14s-1.31.1-2,.1a4,4,0,0,1-2-.45,3.32,3.32,0,0,1-1.36-1.53A2.51,2.51,0,0,1,39.76,5,3,3,0,0,1,41.3,3.4a4,4,0,0,1,2-.46A4.24,4.24,0,0,1,45,3.43a7,7,0,0,1,1.59,1.15c.49.47,1,1,1.44,1.52L49,5.65,46.22.23,45.3.68l-.1,1a10.53,10.53,0,0,0-2,0A6.17,6.17,0,0,0,41,2.31a6.34,6.34,0,0,0-1.75,1.27A5.51,5.51,0,0,0,38.08,5.3a4.91,4.91,0,0,0-.39,2,4.57,4.57,0,0,0,.46,1.94,4.79,4.79,0,0,0,2.06,2.28,6,6,0,0,0,3,.59q.86,0,2-.12l2-.17a3.76,3.76,0,0,1,2.29.49A3.66,3.66,0,0,1,51,13.85a4,4,0,0,1,.39,1.28,2.55,2.55,0,0,1-.8,2.23,4.56,4.56,0,0,1-1.29.88,4.49,4.49,0,0,1-2.07.5,5,5,0,0,1-1.94-.41,7.45,7.45,0,0,1-1.79-1.07,14.48,14.48,0,0,1-1.59-1.56l-.94.46,2.89,5.56.93-.45.09-1.09a9.12,9.12,0,0,0,2.3-.09,8.38,8.38,0,0,0,2.37-.72A6.51,6.51,0,0,0,52.84,16a5.07,5.07,0,0,0-.12-4.37,5.22,5.22,0,0,0-1-1.49,4.27,4.27,0,0,0-1.39-.9,5.56,5.56,0,0,0-1.55-.35"/><path class="cls-3" d="M110.48,134.05a1.79,1.79,0,0,0-1.42,0,3.82,3.82,0,0,0-1.47,1.16,5.66,5.66,0,0,0-1.08,2.12l-.06,0-.65-1.67-.24-.1-3.83,1.8.31.79a5.07,5.07,0,0,1,.7-.17,1.67,1.67,0,0,1,.63,0,1.59,1.59,0,0,1,.71.38,1.87,1.87,0,0,1,.46.67l2.85,7.3a1.44,1.44,0,0,1,.11.76.88.88,0,0,1-.35.58,2.24,2.24,0,0,1-.47.29l-.55.27.31.8,6.24-2.44-.31-.8c-.24.08-.52.16-.85.24a3.74,3.74,0,0,1-.85.12A1,1,0,0,1,110,146a1.4,1.4,0,0,1-.43-.62l-2.7-6.9a4.45,4.45,0,0,1,.78-1.8,3,3,0,0,1,1.14-1c0,.16.07.31.1.47a2,2,0,0,0,.14.49,1.14,1.14,0,0,0,.66.63,1.52,1.52,0,0,0,1.16-.05,1.1,1.1,0,0,0,.74-.84,2.18,2.18,0,0,0-.13-1.2,2,2,0,0,0-1-1.14M89.79,144.62a5.28,5.28,0,0,1,.51-3.24,2.75,2.75,0,0,1,2.06-1.44,2.26,2.26,0,0,1,1.37.17,2.7,2.7,0,0,1,.94.84,4.77,4.77,0,0,1,.59,1.3,10.8,10.8,0,0,1,.35,1.51Zm8.37,3.1a5.29,5.29,0,0,1-1.31,2.15,3.49,3.49,0,0,1-1.88.82,4.09,4.09,0,0,1-2-.14,3.63,3.63,0,0,1-1.48-1,5.42,5.42,0,0,1-1-1.67,9.77,9.77,0,0,1-.57-2.21l8.33-1.23-.13-.84a7.27,7.27,0,0,0-.6-2.06A4.72,4.72,0,0,0,96.43,140a4.21,4.21,0,0,0-1.77-.95,5.83,5.83,0,0,0-2.42-.08,5.16,5.16,0,0,0-2.33.91,5.42,5.42,0,0,0-1.59,1.72,6.84,6.84,0,0,0-.83,2.29,7.88,7.88,0,0,0,0,2.47,9.41,9.41,0,0,0,.75,2.53,6.12,6.12,0,0,0,1.42,2,5.32,5.32,0,0,0,2.09,1.18,6.35,6.35,0,0,0,2.74.14,5.45,5.45,0,0,0,2.92-1.34,6.61,6.61,0,0,0,1.76-2.71Zm-15.81,3.66a3.74,3.74,0,0,1-.89.11c-.42,0-.74,0-.95,0a2.79,2.79,0,0,1-1.1-.25,1.3,1.3,0,0,1-.59-.59,2.55,2.55,0,0,1-.24-.95,12.19,12.19,0,0,1,0-1.34l.33-7.09,3.62.17.06-1.24L79,140.05l.19-4L76.79,136l-.18,3.95-2.35-.11-.05,1.24,2.29.11-.4,8.6a3.49,3.49,0,0,0,.54,2.3,2.74,2.74,0,0,0,2.21.91,6.39,6.39,0,0,0,1.84-.15c.51-.14,1-.31,1.61-.52Zm-13.42-.53a3.65,3.65,0,0,1-.59-.22,2.78,2.78,0,0,1-.51-.31,1.05,1.05,0,0,1-.43-.54,1.49,1.49,0,0,1,0-.76L71.05,132l-.14-.22L66.18,131l-.18.81a7.69,7.69,0,0,1,.94.36,2.65,2.65,0,0,1,.77.45,1.63,1.63,0,0,1,.38.74,1.91,1.91,0,0,1,0,.89L65,148.66a1.31,1.31,0,0,1-.33.7,1,1,0,0,1-.62.29,3.78,3.78,0,0,1-.56,0l-.63-.08-.18.83,6.07,1.3ZM52,138.28a5.23,5.23,0,0,1,2.11-2.51,2.76,2.76,0,0,1,2.51-.16,2.21,2.21,0,0,1,1.08.85,2.68,2.68,0,0,1,.37,1.21,4.45,4.45,0,0,1-.17,1.42,10.14,10.14,0,0,1-.48,1.47Zm5.55,7a5.26,5.26,0,0,1-2.23,1.16,3.48,3.48,0,0,1-2-.27A4.06,4.06,0,0,1,51.62,145a3.48,3.48,0,0,1-.75-1.6,5.27,5.27,0,0,1,0-1.94,9.81,9.81,0,0,1,.66-2.19l7.76,3.26.33-.78a7.59,7.59,0,0,0,.56-2.08,4.85,4.85,0,0,0-.16-1.91A4.18,4.18,0,0,0,59,136a6,6,0,0,0-2-1.33,5.28,5.28,0,0,0-2.47-.43,5.76,5.76,0,0,0-2.25.66,6.81,6.81,0,0,0-1.9,1.53,7.7,7.7,0,0,0-1.3,2.09,9.19,9.19,0,0,0-.68,2.55,6.31,6.31,0,0,0,.19,2.43,5.3,5.3,0,0,0,1.19,2.09A6.19,6.19,0,0,0,52,147.17a5.38,5.38,0,0,0,3.19.36,6.44,6.44,0,0,0,2.92-1.4Zm-17-4.93a4,4,0,0,1-.46-.44c-.1-.12-.21-.28-.33-.46a1.07,1.07,0,0,1-.18-.66,1.38,1.38,0,0,1,.3-.69l3.91-5.33a4.7,4.7,0,0,0,1.09-3,3.23,3.23,0,0,0-1.48-2.41,4.94,4.94,0,0,0-1.32-.72,4.67,4.67,0,0,0-1.24-.26,6.17,6.17,0,0,0-1.15,0l-1.07.15,0,0,5.24-7.15,0-.27-4-2.55-.48.67c.18.15.42.37.7.64a1.78,1.78,0,0,1,.52.67,1.57,1.57,0,0,1,0,.84,2.23,2.23,0,0,1-.36.83l-8.75,11.94a1.46,1.46,0,0,1-.59.51,1,1,0,0,1-.67,0,2.77,2.77,0,0,1-.5-.24l-.53-.32-.5.69,5,3.68.51-.69a4.29,4.29,0,0,1-.48-.46,3,3,0,0,1-.36-.51,1.13,1.13,0,0,1-.18-.67,1.38,1.38,0,0,1,.29-.68l4.32-5.9a5.65,5.65,0,0,1,.61-.22,3,3,0,0,1,.92-.13,5.22,5.22,0,0,1,1.14.19,3.44,3.44,0,0,1,1.13.57,2,2,0,0,1,.82,1.51,3.07,3.07,0,0,1-.71,2.06l-3.87,5.27a1.44,1.44,0,0,1-.58.51.91.91,0,0,1-.67,0A2.26,2.26,0,0,1,36,137l-.56-.34-.51.68,5,3.7ZM27,121a12.11,12.11,0,0,0-.56-1.63c-.23-.57-.41-1-.55-1.44a5.32,5.32,0,0,1-.26-1,1.87,1.87,0,0,1,.12-.89,2,2,0,0,1,.61-.77,1.62,1.62,0,0,1,1.37-.37,2.43,2.43,0,0,1,1.48.92A3,3,0,0,1,30,118a4,4,0,0,1-.95,2.33l.58.68,3-2.79-.6-.71-.7.21a5,5,0,0,0-.47-1.27,6.1,6.1,0,0,0-.84-1.29,4.35,4.35,0,0,0-2.83-1.67,3.48,3.48,0,0,0-2.77.82,3.06,3.06,0,0,0-.94,1.28,3.49,3.49,0,0,0-.25,1.42,5.66,5.66,0,0,0,.25,1.45,13.5,13.5,0,0,0,.5,1.35c.21.48.38.94.53,1.35a5.71,5.71,0,0,1,.27,1.15,2.14,2.14,0,0,1-.13.92,2,2,0,0,1-.57.77,2,2,0,0,1-1.67.53,2.89,2.89,0,0,1-1.66-1.09A3.3,3.3,0,0,1,20,122a4.44,4.44,0,0,1,0-1.54,5.55,5.55,0,0,1,.4-1.4A5.2,5.2,0,0,1,21,118l-.57-.68-3.29,3,.62.74.81-.35a5.43,5.43,0,0,0,.3,1.49,5.68,5.68,0,0,0,4.08,3.71A3.62,3.62,0,0,0,26,125a3.55,3.55,0,0,0,1-1.17,3.26,3.26,0,0,0,.29-1.32A5.37,5.37,0,0,0,27,121M10.14,107.5a4.4,4.4,0,0,1-.18-.6,2.8,2.8,0,0,1-.07-.59,1.07,1.07,0,0,1,.17-.68,1.42,1.42,0,0,1,.6-.47l15.74-7.5.1-.25-2.31-4.19-.75.35a8,8,0,0,1,.29,1,2.79,2.79,0,0,1,.11.89,1.79,1.79,0,0,1-.35.74,2.06,2.06,0,0,1-.71.56L9.49,103.06a1.41,1.41,0,0,1-.76.16.93.93,0,0,1-.6-.31,3.49,3.49,0,0,1-.33-.46l-.32-.54-.77.36,2.67,5.6ZM5.84,91.91A4.32,4.32,0,0,1,4.52,91a2.82,2.82,0,0,1-.84-1.44,2,2,0,0,1,.12-1.51,2,2,0,0,1,1.38-.94,2.66,2.66,0,0,1,1.48,0,3.35,3.35,0,0,1,1.26.72,7.39,7.39,0,0,1,1.14,1.28c.34.48.71,1,1.1,1.7Zm-.31,4.81c-.08-.28-.14-.56-.21-.83a1.35,1.35,0,0,1,0-.62,1.4,1.4,0,0,1,.35-.65,1.57,1.57,0,0,1,.73-.37c1.09-.29,2.09-.54,3-.76s2-.48,3.17-.8a5.37,5.37,0,0,0,1.95-.86,3,3,0,0,0,1-1.3A3.54,3.54,0,0,0,15.75,89a10,10,0,0,0-.34-1.86,5.46,5.46,0,0,0-.65-1.5,6.06,6.06,0,0,0-.95-1.2,4.07,4.07,0,0,0-1.22-.8,1.79,1.79,0,0,0-2.11.43,1.05,1.05,0,0,0-.2,1,1.6,1.6,0,0,0,.65,1,1.08,1.08,0,0,0,.9.18,4,4,0,0,0,.86-.35,3.61,3.61,0,0,1,.71-.31,2,2,0,0,1,.58.58,2.91,2.91,0,0,1,.48,1,2.15,2.15,0,0,1,0,1.38,2.58,2.58,0,0,1-.62.91A2.66,2.66,0,0,1,13,90c-.29.12-.49.2-.6.23l-1.24.33a18.67,18.67,0,0,1-1.5-2.08c-.69-1-1.15-1.73-1.39-2.07a6.44,6.44,0,0,0-.72-.83,3,3,0,0,0-.88-.65,3,3,0,0,0-1.17-.33,3.85,3.85,0,0,0-1.32.13,3.07,3.07,0,0,0-2,1.48A3.29,3.29,0,0,0,2,88.7a5.12,5.12,0,0,0,1.07,2.11,6.2,6.2,0,0,0,1.83,1.38l0,.07a2.17,2.17,0,0,0-1.13,1.1,2.53,2.53,0,0,0,0,1.67,3.72,3.72,0,0,0,.4,1c.16.27.37.58.61.93ZM1,76.24a6.59,6.59,0,0,0,2.46,2.18l.52-.83a6,6,0,0,1-1.86-1.52A3.51,3.51,0,0,1,1.42,74a3.28,3.28,0,0,1,1.45-2.82A6.72,6.72,0,0,1,6.76,70a10.29,10.29,0,0,1,2.62.23,5.15,5.15,0,0,1,1.76.74,3.08,3.08,0,0,1,1,1.06,2.81,2.81,0,0,1,.29,1.17,3.54,3.54,0,0,1-.11,1,1.19,1.19,0,0,1-.52.7,8.84,8.84,0,0,1-.9-.16,4.48,4.48,0,0,0-1.19-.13,1.14,1.14,0,0,0-.85.44,1.68,1.68,0,0,0-.36,1.19,1.09,1.09,0,0,0,.52,1,2.1,2.1,0,0,0,1.15.29,2.93,2.93,0,0,0,2.41-1.23,4.87,4.87,0,0,0,.83-3.06,5.59,5.59,0,0,0-.62-2.49,5.75,5.75,0,0,0-1.52-1.88,7.24,7.24,0,0,0-2.15-1.17,7.37,7.37,0,0,0-2.51-.36A7.38,7.38,0,0,0,1.73,69,5.4,5.4,0,0,0,0,73.38a5.24,5.24,0,0,0,1,2.86M3.77,56.51a2.86,2.86,0,0,1-1-2.84,2.75,2.75,0,0,1,.82-1.5,3.59,3.59,0,0,1,1.5-.79,6.58,6.58,0,0,1,2-.22,12,12,0,0,1,2.28.31,10.78,10.78,0,0,1,1.86.59,5.6,5.6,0,0,1,1.62,1,3.6,3.6,0,0,1,1.06,1.4A2.92,2.92,0,0,1,14,56.19a2.7,2.7,0,0,1-.83,1.49,3.49,3.49,0,0,1-1.49.78,6.59,6.59,0,0,1-1.91.17,11.47,11.47,0,0,1-2-.26,8.34,8.34,0,0,1-4-1.86m8.49,3.82a6.35,6.35,0,0,0,1.87-8.75,6.9,6.9,0,0,0-4.38-2.76,7.41,7.41,0,0,0-2.83-.13,6.33,6.33,0,0,0-2.35.84,5.92,5.92,0,0,0-1.73,1.61,6,6,0,0,0-.95,2.16A6.74,6.74,0,0,0,1.8,56a5.71,5.71,0,0,0,1.05,2.35A6.25,6.25,0,0,0,4.73,60a8.42,8.42,0,0,0,2.48,1,6.57,6.57,0,0,0,5.05-.65M7.15,41a4.87,4.87,0,0,1,.35-.53A4.16,4.16,0,0,1,7.92,40a1.07,1.07,0,0,1,.64-.29,1.44,1.44,0,0,1,.74.17L25,47.51l.25-.08L27.08,43l-.74-.36a8.89,8.89,0,0,1-.58.83,2.69,2.69,0,0,1-.62.64,1.72,1.72,0,0,1-.8.19,1.92,1.92,0,0,1-.88-.2L10.2,37.69a1.44,1.44,0,0,1-.6-.49,1,1,0,0,1-.13-.67A3.4,3.4,0,0,1,9.63,36c.07-.21.15-.41.22-.59L9.08,35l-2.7,5.58Z"/></g></svg>